HIERARCHY
ROOT Hips
{
	OFFSET 0.000000 0.000000 0.000000
	CHANNELS 6 Xposition Yposition Zposition Zrotation Xrotation Yrotation
	JOINT Spine
	{
		OFFSET 0.000000 0.059888 0.006665
		CHANNELS 6 Xposition Yposition Zposition Zrotation Xrotation Yrotation
		JOINT Chest
		{
			OFFSET 0.000000 0.125681 -0.015911
			CHANNELS 6 Xposition Yposition Zposition Zrotation Xrotation Yrotation
			JOINT UpperChest
			{
				OFFSET 0.000000 0.122768 -0.001652
				CHANNELS 6 Xposition Yposition Zposition Zrotation Xrotation Yrotation
				JOINT Neck
				{
					OFFSET 0.000000 0.155865 0.008735
					CHANNELS 6 Xposition Yposition Zposition Zrotation Xrotation Yrotation
					JOINT Head
					{
						OFFSET 0.000000 0.095969 -0.000410
						CHANNELS 6 Xposition Yposition Zposition Zrotation Xrotation Yrotation
						JOINT LeftEye
						{
							OFFSET 0.015267 0.059218 0.021494
							CHANNELS 6 Xposition Yposition Zposition Zrotation Xrotation Yrotation
							End Site
							{
								OFFSET 0.015267 0.059218 0.021494
							}
						}
						JOINT RightEye
						{
							OFFSET -0.015267 0.059218 0.021494
							CHANNELS 6 Xposition Yposition Zposition Zrotation Xrotation Yrotation
							End Site
							{
								OFFSET -0.015267 0.059218 0.021494
							}
						}
					}
				}
				JOINT LeftShoulder
				{
					OFFSET 0.025383 0.124268 0.007699
					CHANNELS 6 Xposition Yposition Zposition Zrotation Xrotation Yrotation
					JOINT LeftUpperArm
					{
						OFFSET 0.136062 0.000000 0.000000
						CHANNELS 6 Xposition Yposition Zposition Zrotation Xrotation Yrotation
						JOINT LeftLowerArm
						{
							OFFSET 0.225446 0.000000 0.000000
							CHANNELS 6 Xposition Yposition Zposition Zrotation Xrotation Yrotation
							JOINT LeftHand
							{
								OFFSET 0.256325 0.000003 0.000015
								CHANNELS 6 Xposition Yposition Zposition Zrotation Xrotation Yrotation
								JOINT LeftIndexProximal
								{
									OFFSET 0.074229 0.008101 0.022282
									CHANNELS 6 Xposition Yposition Zposition Zrotation Xrotation Yrotation
									JOINT LeftIndexIntermediate
									{
										OFFSET 0.037712 0.000000 -0.000001
										CHANNELS 6 Xposition Yposition Zposition Zrotation Xrotation Yrotation
										JOINT LeftIndexDistal
										{
											OFFSET 0.023218 0.000022 0.000021
											CHANNELS 6 Xposition Yposition Zposition Zrotation Xrotation Yrotation
											End Site
											{
												OFFSET 0.023218 0.000022 0.000021
											}
										}
									}
								}
								JOINT LeftLittleProximal
								{
									OFFSET 0.069261 0.008101 -0.033073
									CHANNELS 6 Xposition Yposition Zposition Zrotation Xrotation Yrotation
									JOINT LeftLittleIntermediate
									{
										OFFSET 0.035643 0.000000 0.000000
										CHANNELS 6 Xposition Yposition Zposition Zrotation Xrotation Yrotation
										JOINT LeftLittleDistal
										{
											OFFSET 0.020542 0.000000 0.000000
											CHANNELS 6 Xposition Yposition Zposition Zrotation Xrotation Yrotation
											End Site
											{
												OFFSET 0.020542 0.000000 0.000000
											}
										}
									}
								}
								JOINT LeftMiddleProximal
								{
									OFFSET 0.075240 0.008101 0.002320
									CHANNELS 6 Xposition Yposition Zposition Zrotation Xrotation Yrotation
									JOINT LeftMiddleIntermediate
									{
										OFFSET 0.042007 0.000000 0.000000
										CHANNELS 6 Xposition Yposition Zposition Zrotation Xrotation Yrotation
										JOINT LeftMiddleDistal
										{
											OFFSET 0.025915 0.000000 0.000000
											CHANNELS 6 Xposition Yposition Zposition Zrotation Xrotation Yrotation
											End Site
											{
												OFFSET 0.025915 0.000000 0.000000
											}
										}
									}
								}
								JOINT LeftRingProximal
								{
									OFFSET 0.074383 0.008101 -0.015403
									CHANNELS 6 Xposition Yposition Zposition Zrotation Xrotation Yrotation
									JOINT LeftRingIntermediate
									{
										OFFSET 0.038967 0.000000 0.000000
										CHANNELS 6 Xposition Yposition Zposition Zrotation Xrotation Yrotation
										JOINT LeftRingDistal
										{
											OFFSET 0.022488 0.000000 0.000000
											CHANNELS 6 Xposition Yposition Zposition Zrotation Xrotation Yrotation
											End Site
											{
												OFFSET 0.022488 0.000000 0.000000
											}
										}
									}
								}
								JOINT LeftThumbProximal
								{
									OFFSET 0.003995 -0.010985 0.018096
									CHANNELS 6 Xposition Yposition Zposition Zrotation Xrotation Yrotation
									JOINT LeftThumbIntermediate
									{
										OFFSET 0.052819 -0.000008 -0.000074
										CHANNELS 6 Xposition Yposition Zposition Zrotation Xrotation Yrotation
										JOINT LeftThumbDistal
										{
											OFFSET 0.032489 0.000042 -0.000035
											CHANNELS 6 Xposition Yposition Zposition Zrotation Xrotation Yrotation
											End Site
											{
												OFFSET 0.032489 0.000042 -0.000035
											}
										}
									}
								}
							}
						}
					}
				}
				JOINT RightShoulder
				{
					OFFSET -0.025383 0.124268 0.007699
					CHANNELS 6 Xposition Yposition Zposition Zrotation Xrotation Yrotation
					JOINT RightUpperArm
					{
						OFFSET -0.136062 0.000000 0.000000
						CHANNELS 6 Xposition Yposition Zposition Zrotation Xrotation Yrotation
						JOINT RightLowerArm
						{
							OFFSET -0.225446 0.000000 0.000000
							CHANNELS 6 Xposition Yposition Zposition Zrotation Xrotation Yrotation
							JOINT RightHand
							{
								OFFSET -0.256325 0.000003 0.000015
								CHANNELS 6 Xposition Yposition Zposition Zrotation Xrotation Yrotation
								JOINT RightIndexProximal
								{
									OFFSET -0.074229 0.008101 0.022282
									CHANNELS 6 Xposition Yposition Zposition Zrotation Xrotation Yrotation
									JOINT RightIndexIntermediate
									{
										OFFSET -0.037712 0.000000 -0.000001
										CHANNELS 6 Xposition Yposition Zposition Zrotation Xrotation Yrotation
										JOINT RightIndexDistal
										{
											OFFSET -0.023218 0.000022 0.000021
											CHANNELS 6 Xposition Yposition Zposition Zrotation Xrotation Yrotation
											End Site
											{
												OFFSET -0.023218 0.000022 0.000021
											}
										}
									}
								}
								JOINT RightLittleProximal
								{
									OFFSET -0.069261 0.008101 -0.033073
									CHANNELS 6 Xposition Yposition Zposition Zrotation Xrotation Yrotation
									JOINT RightLittleIntermediate
									{
										OFFSET -0.035643 0.000000 0.000000
										CHANNELS 6 Xposition Yposition Zposition Zrotation Xrotation Yrotation
										JOINT RightLittleDistal
										{
											OFFSET -0.020542 0.000000 0.000000
											CHANNELS 6 Xposition Yposition Zposition Zrotation Xrotation Yrotation
											End Site
											{
												OFFSET -0.020542 0.000000 0.000000
											}
										}
									}
								}
								JOINT RightMiddleProximal
								{
									OFFSET -0.075240 0.008101 0.002320
									CHANNELS 6 Xposition Yposition Zposition Zrotation Xrotation Yrotation
									JOINT RightMiddleIntermediate
									{
										OFFSET -0.042007 0.000000 0.000000
										CHANNELS 6 Xposition Yposition Zposition Zrotation Xrotation Yrotation
										JOINT RightMiddleDistal
										{
											OFFSET -0.025915 0.000000 0.000000
											CHANNELS 6 Xposition Yposition Zposition Zrotation Xrotation Yrotation
											End Site
											{
												OFFSET -0.025915 0.000000 0.000000
											}
										}
									}
								}
								JOINT RightRingProximal
								{
									OFFSET -0.074383 0.008101 -0.015403
									CHANNELS 6 Xposition Yposition Zposition Zrotation Xrotation Yrotation
									JOINT RightRingIntermediate
									{
										OFFSET -0.038967 0.000000 0.000000
										CHANNELS 6 Xposition Yposition Zposition Zrotation Xrotation Yrotation
										JOINT RightRingDistal
										{
											OFFSET -0.022488 0.000000 0.000000
											CHANNELS 6 Xposition Yposition Zposition Zrotation Xrotation Yrotation
											End Site
											{
												OFFSET -0.022488 0.000000 0.000000
											}
										}
									}
								}
								JOINT RightThumbProximal
								{
									OFFSET -0.003995 -0.010985 0.018096
									CHANNELS 6 Xposition Yposition Zposition Zrotation Xrotation Yrotation
									JOINT RightThumbIntermediate
									{
										OFFSET -0.052819 -0.000008 -0.000074
										CHANNELS 6 Xposition Yposition Zposition Zrotation Xrotation Yrotation
										JOINT RightThumbDistal
										{
											OFFSET -0.032489 0.000042 -0.000035
											CHANNELS 6 Xposition Yposition Zposition Zrotation Xrotation Yrotation
											End Site
											{
												OFFSET -0.032489 0.000042 -0.000035
											}
										}
									}
								}
							}
						}
					}
				}
			}
		}
	}
	JOINT LeftUpperLeg
	{
		OFFSET 0.087143 -0.045243 0.001548
		CHANNELS 6 Xposition Yposition Zposition Zrotation Xrotation Yrotation
		JOINT LeftLowerLeg
		{
			OFFSET 0.000000 -0.394432 -0.000001
			CHANNELS 6 Xposition Yposition Zposition Zrotation Xrotation Yrotation
			JOINT LeftFoot
			{
				OFFSET 0.000000 -0.466446 0.003058
				CHANNELS 6 Xposition Yposition Zposition Zrotation Xrotation Yrotation
				JOINT LeftToes
				{
					OFFSET 0.000000 -0.079218 0.140851
					CHANNELS 6 Xposition Yposition Zposition Zrotation Xrotation Yrotation
					End Site
					{
						OFFSET 0.000000 -0.079218 0.140851
					}
				}
			}
		}
	}
	JOINT RightUpperLeg
	{
		OFFSET -0.087143 -0.045243 0.001548
		CHANNELS 6 Xposition Yposition Zposition Zrotation Xrotation Yrotation
		JOINT RightLowerLeg
		{
			OFFSET 0.000000 -0.394432 -0.000001
			CHANNELS 6 Xposition Yposition Zposition Zrotation Xrotation Yrotation
			JOINT RightFoot
			{
				OFFSET 0.000000 -0.466446 0.003058
				CHANNELS 6 Xposition Yposition Zposition Zrotation Xrotation Yrotation
				JOINT RightToes
				{
					OFFSET 0.000000 -0.079218 0.140851
					CHANNELS 6 Xposition Yposition Zposition Zrotation Xrotation Yrotation
					End Site
					{
						OFFSET 0.000000 -0.079218 0.140851
					}
				}
			}
		}
	}
}
MOTION
Frames: 4
Frame Time: 0.041667
0.011088 1.068869 0.027575 -4.156895 15.188659 16.456272 0.000000 0.059888 0.006665 1.769295 9.260476 1.099610 0.000000 0.125681 -0.015911 1.985355 2.334372 0.218061 0.000000 0.122768 -0.001652 -0.000049 -12.397697 -0.000107 0.000000 0.155865 0.008735 1.304171 14.545866 0.024064 0.000000 0.095969 -0.000410 -1.459656 0.565050 -2.082941 0.015267 0.059218 0.021494 -1.701130 3.586995 21.747932 -0.015267 0.059218 0.021494 1.701133 3.587003 -21.747923 0.025383 0.124268 0.007699 11.739228 -3.191903 11.928943 0.136062 0.000000 -0.000000 -90.627089 31.383951 -3.153680 0.225446 -0.000000 -0.000000 -8.657768 10.971913 -21.778803 0.256325 0.000003 0.000015 3.904177 39.928429 -6.963056 0.074229 0.008101 0.022282 -0.012967 0.667620 1.112105 0.037712 0.000000 -0.000001 -1.679195 1.282861 0.674522 0.023218 0.000022 0.000021 -0.334983 1.286453 -0.710999 0.069261 0.008101 -0.033073 0.000006 -0.000040 -0.000000 0.035643 -0.000000 0.000000 0.000003 0.000001 0.000001 0.020542 -0.000000 0.000000 0.890205 -0.008561 -1.101173 0.075240 0.008101 0.002320 -0.000000 -0.000008 -0.000006 0.042007 0.000000 0.000000 0.000004 0.000040 -0.000013 0.025915 -0.000000 0.000000 0.000003 0.000040 -0.000013 0.074383 0.008101 -0.015403 0.000000 0.000012 0.000003 0.038967 0.000000 0.000000 0.000002 0.000004 -0.000001 0.022488 -0.000000 0.000000 -0.712571 -0.008157 1.310728 0.003995 -0.010985 0.018096 86.199487 49.487521 -89.646574 0.052819 -0.000008 -0.000074 -2.573039 -0.739910 0.463018 0.032489 0.000042 -0.000035 4.590287 -0.705069 -0.717108 -0.025383 0.124268 0.007699 7.770081 -3.143792 -13.933049 -0.136062 -0.000000 0.000000 60.540044 40.081739 18.344886 -0.225446 -0.000000 0.000000 9.910296 2.218735 26.438267 -0.256325 0.000003 0.000015 -16.407106 58.137648 13.764509 -0.074229 0.008101 0.022282 0.012973 0.667619 -1.112107 -0.037712 0.000000 -0.000001 1.679196 1.282863 -0.674524 -0.023218 0.000022 0.000021 0.334984 1.286454 0.710999 -0.069261 0.008101 -0.033073 -0.000003 -0.000044 -0.000002 -0.035643 -0.000000 0.000000 -0.000003 -0.000002 -0.000002 -0.020542 -0.000000 -0.000000 -0.890205 -0.008562 1.101174 -0.075240 0.008101 0.002320 0.000005 -0.000009 0.000004 -0.042007 -0.000000 0.000000 -0.000005 0.000040 0.000013 -0.025915 -0.000000 0.000000 -0.000003 0.000040 0.000011 -0.074383 0.008101 -0.015403 0.000003 0.000013 -0.000005 -0.038967 0.000000 0.000000 -0.000005 -0.000000 -0.000003 -0.022488 0.000000 -0.000000 0.712576 -0.008157 -1.310728 -0.003995 -0.010985 0.018096 -86.199433 49.487517 89.646581 -0.052819 -0.000008 -0.000074 2.573042 -0.739911 -0.463021 -0.032489 0.000042 -0.000035 -4.590281 -0.705067 0.717110 0.087143 -0.045243 0.001548 -1.159388 -11.033253 -0.221935 -0.000000 -0.394432 -0.000001 0.746564 27.267345 -1.542307 0.000000 -0.466446 0.003058 2.034750 -9.859482 12.168053 0.000000 -0.079218 0.140851 0.000001 0.248285 0.000002 -0.087143 -0.045243 0.001548 -7.758980 -10.032581 -1.359717 0.000000 -0.394432 -0.000001 8.174142 20.567873 -16.082087 -0.000000 -0.466446 0.003058 5.191016 -13.096783 22.421284 0.000000 -0.079218 0.140851 -0.000000 0.248290 0.000000 
0.010149 1.075509 0.020923 -4.223047 13.978711 16.347431 -0.000000 0.059888 0.006665 1.738873 10.268993 2.007113 -0.000000 0.125681 -0.015911 2.141444 3.258564 0.257187 -0.000000 0.122768 -0.001652 -0.000050 -12.397700 -0.000106 0.000000 0.155865 0.008735 1.284112 14.320804 0.004296 -0.000000 0.095969 -0.000410 -1.131434 0.704806 -3.265093 0.015267 0.059218 0.021494 -1.701130 3.586992 21.747927 -0.015267 0.059218 0.021494 1.701133 3.587002 -21.747923 0.025383 0.124268 0.007699 11.561658 -3.690892 12.184473 0.136062 0.000000 -0.000000 -89.738249 31.795238 -3.702968 0.225446 -0.000000 0.000000 -8.555277 11.588349 -22.577334 0.256325 0.000003 0.000015 3.249815 40.031445 -5.783305 0.074229 0.008101 0.022282 -0.012965 0.667622 1.112105 0.037712 0.000000 -0.000001 -1.679195 1.282859 0.674521 0.023218 0.000022 0.000021 -0.334984 1.286459 -0.711000 0.069261 0.008101 -0.033073 0.000006 -0.000042 0.000001 0.035643 -0.000000 -0.000000 0.000003 0.000001 0.000000 0.020542 -0.000000 0.000000 0.890204 -0.008562 -1.101172 0.075240 0.008101 0.002320 0.000003 -0.000009 -0.000006 0.042007 0.000000 0.000000 0.000002 0.000037 -0.000012 0.025915 -0.000000 0.000000 0.000003 0.000040 -0.000014 0.074383 0.008101 -0.015403 0.000003 0.000015 0.000003 0.038967 0.000000 0.000000 0.000003 0.000001 -0.000000 0.022488 -0.000000 0.000000 -0.712572 -0.008160 1.310730 0.003995 -0.010985 0.018096 86.199494 49.487521 -89.646568 0.052819 -0.000008 -0.000074 -2.573030 -0.739914 0.463020 0.032489 0.000042 -0.000035 4.590285 -0.705069 -0.717110 -0.025383 0.124268 0.007699 7.473228 -3.645222 -14.111148 -0.136062 0.000000 -0.000000 60.006688 39.346818 18.164357 -0.225446 -0.000000 0.000000 10.214066 3.987752 26.907062 -0.256325 0.000003 0.000015 -14.936968 55.842223 13.211590 -0.074229 0.008101 0.022282 0.012969 0.667618 -1.112106 -0.037712 0.000000 -0.000001 1.679193 1.282860 -0.674522 -0.023218 0.000022 0.000021 0.334983 1.286455 0.711000 -0.069261 0.008101 -0.033073 -0.000005 -0.000042 -0.000002 -0.035643 -0.000000 -0.000000 -0.000005 0.000000 -0.000002 -0.020542 -0.000000 0.000000 -0.890204 -0.008562 1.101172 -0.075240 0.008101 0.002320 0.000001 -0.000009 0.000005 -0.042007 -0.000000 -0.000000 -0.000004 0.000041 0.000010 -0.025915 0.000000 -0.000000 -0.000004 0.000039 0.000014 -0.074383 0.008101 -0.015403 0.000001 0.000012 -0.000007 -0.038967 0.000000 0.000000 -0.000004 0.000001 -0.000001 -0.022488 -0.000000 0.000000 0.712571 -0.008157 -1.310730 -0.003995 -0.010985 0.018096 -86.199433 49.487524 89.646581 -0.052819 -0.000008 -0.000074 2.573041 -0.739911 -0.463021 -0.032489 0.000042 -0.000035 -4.590279 -0.705068 0.717111 0.087143 -0.045243 0.001548 -1.262368 -11.758623 -0.257319 -0.000000 -0.394432 -0.000001 1.164712 27.494484 -2.397671 -0.000000 -0.466446 0.003058 2.871817 -11.901201 14.094124 -0.000000 -0.079218 0.140851 0.000001 0.248282 -0.000001 -0.087143 -0.045243 0.001548 -7.110793 -10.856627 -1.345967 0.000000 -0.394432 -0.000001 7.479426 20.797392 -14.535530 -0.000000 -0.466446 0.003058 5.006216 -14.190079 20.147569 -0.000000 -0.079218 0.140851 -0.000000 0.248283 0.000001 
0.008992 1.078636 0.015599 -4.069368 13.204905 15.877045 -0.000000 0.059888 0.006665 1.390049 10.845137 2.977258 -0.000000 0.125681 -0.015911 2.015976 3.762068 0.246996 -0.000000 0.122768 -0.001652 -0.000050 -12.397698 -0.000104 0.000000 0.155865 0.008735 1.227748 14.160983 -0.002601 0.000000 0.095969 -0.000410 -0.643047 1.098579 -4.194811 0.015267 0.059218 0.021494 -1.701130 3.586993 21.747932 -0.015267 0.059218 0.021494 1.701130 3.587005 -21.747923 0.025383 0.124268 0.007699 11.808592 -3.972230 12.359324 0.136062 0.000000 -0.000000 -89.299498 31.439928 -3.589694 0.225446 -0.000000 0.000000 -8.490663 11.998423 -23.383781 0.256325 0.000003 0.000015 1.866453 39.940921 -4.072585 0.074229 0.008101 0.022282 -0.012966 0.667619 1.112107 0.037712 0.000000 -0.000001 -1.679196 1.282860 0.674523 0.023218 0.000022 0.000021 -0.334984 1.286453 -0.711000 0.069261 0.008101 -0.033073 0.000005 -0.000041 0.000002 0.035643 -0.000000 0.000000 0.000003 -0.000000 0.000000 0.020542 0.000000 0.000000 0.890204 -0.008564 -1.101171 0.075240 0.008101 0.002320 -0.000000 -0.000009 -0.000004 0.042007 -0.000000 -0.000000 0.000002 0.000038 -0.000013 0.025915 -0.000000 -0.000000 0.000003 0.000037 -0.000014 0.074383 0.008101 -0.015403 0.000000 0.000011 0.000006 0.038967 0.000000 -0.000000 0.000002 0.000000 -0.000002 0.022488 0.000000 -0.000000 -0.712572 -0.008159 1.310728 0.003995 -0.010985 0.018096 86.199494 49.487521 -89.646574 0.052819 -0.000008 -0.000074 -2.573038 -0.739915 0.463027 0.032489 0.000042 -0.000035 4.590286 -0.705066 -0.717110 -0.025383 0.124268 0.007699 7.621692 -3.929205 -14.174647 -0.136062 0.000000 -0.000000 59.361618 38.387459 17.806698 -0.225446 0.000000 0.000000 10.600967 6.354107 27.154276 -0.256325 0.000003 0.000015 -11.180533 51.996789 10.590797 -0.074229 0.008101 0.022282 0.012967 0.667620 -1.112106 -0.037712 -0.000000 -0.000001 1.679195 1.282858 -0.674523 -0.023218 0.000022 0.000021 0.334983 1.286451 0.710999 -0.069261 0.008101 -0.033073 -0.000006 -0.000042 -0.000005 -0.035643 -0.000000 0.000000 -0.000005 0.000003 -0.000000 -0.020542 -0.000000 -0.000000 -0.890202 -0.008560 1.101173 -0.075240 0.008101 0.002320 -0.000003 -0.000007 0.000004 -0.042007 0.000000 0.000000 -0.000003 0.000040 0.000013 -0.025915 -0.000000 0.000000 -0.000003 0.000040 0.000014 -0.074383 0.008101 -0.015403 -0.000001 0.000015 -0.000006 -0.038967 -0.000000 -0.000000 -0.000007 -0.000001 -0.000001 -0.022488 0.000000 -0.000000 0.712569 -0.008157 -1.310729 -0.003995 -0.010985 0.018096 -86.199433 49.487521 89.646581 -0.052819 -0.000008 -0.000074 2.573036 -0.739911 -0.463022 -0.032489 0.000042 -0.000035 -4.590280 -0.705066 0.717109 0.087143 -0.045243 0.001548 -1.644172 -12.534267 -0.356940 0.000000 -0.394432 -0.000001 1.539476 27.908189 -3.139261 0.000000 -0.466446 0.003058 3.863526 -13.910971 16.096126 0.000000 -0.079218 0.140851 0.000001 0.248282 -0.000001 -0.087143 -0.045243 0.001548 -6.845113 -11.618652 -1.384878 0.000000 -0.394432 -0.000001 6.910069 21.067963 -13.475594 0.000000 -0.466446 0.003058 4.964018 -15.054528 18.920949 0.000000 -0.079218 0.140851 0.000002 0.248285 -0.000004 
0.008103 1.076928 0.012477 -3.901000 13.115189 15.502390 0.000000 0.059888 0.006665 0.925375 10.731492 3.738347 0.000000 0.125681 -0.015911 1.712157 3.632324 0.202040 -0.000000 0.122768 -0.001652 -0.000047 -12.397695 -0.000103 -0.000000 0.155865 0.008735 1.064452 14.165998 0.005875 0.000000 0.095969 -0.000410 -0.260697 1.692079 -4.877683 0.015267 0.059218 0.021494 -1.701133 3.586996 21.747935 -0.015267 0.059218 0.021494 1.701131 3.587001 -21.747920 0.025383 0.124268 0.007699 12.145224 -3.908306 12.427407 0.136062 0.000000 -0.000000 -89.273885 30.384581 -2.753665 0.225446 -0.000000 0.000000 -8.296288 12.166591 -24.113015 0.256325 0.000003 0.000015 -0.728951 39.028100 -1.745792 0.074229 0.008101 0.022282 -0.012967 0.667622 1.112106 0.037712 0.000000 -0.000001 -1.679195 1.282865 0.674522 0.023218 0.000022 0.000021 -0.334985 1.286458 -0.710999 0.069261 0.008101 -0.033073 0.000005 -0.000046 0.000001 0.035643 -0.000000 0.000000 0.000003 -0.000000 -0.000001 0.020542 0.000000 0.000000 0.890204 -0.008558 -1.101171 0.075240 0.008101 0.002320 -0.000001 -0.000007 -0.000006 0.042007 0.000000 0.000000 0.000002 0.000039 -0.000013 0.025915 -0.000000 0.000000 0.000003 0.000043 -0.000014 0.074383 0.008101 -0.015403 0.000000 0.000013 0.000004 0.038967 0.000000 0.000000 0.000003 0.000003 -0.000001 0.022488 0.000000 0.000000 -0.712572 -0.008156 1.310730 0.003995 -0.010985 0.018096 86.199494 49.487521 -89.646568 0.052819 -0.000008 -0.000074 -2.573035 -0.739912 0.463019 0.032489 0.000042 -0.000035 4.590285 -0.705071 -0.717110 -0.025383 0.124268 0.007699 7.840443 -3.867816 -14.088104 -0.136062 -0.000000 -0.000000 58.941015 37.225600 17.151298 -0.225446 -0.000000 -0.000000 10.978454 9.051197 27.297638 -0.256325 0.000003 0.000015 -8.852678 47.822775 8.235113 -0.074229 0.008101 0.022282 0.012968 0.667618 -1.112104 -0.037712 0.000000 -0.000001 1.679195 1.282863 -0.674519 -0.023218 0.000022 0.000021 0.334983 1.286455 0.710998 -0.069261 0.008101 -0.033073 -0.000005 -0.000044 -0.000002 -0.035643 0.000000 0.000000 -0.000004 0.000001 -0.000002 -0.020542 -0.000000 -0.000000 -0.890205 -0.008562 1.101170 -0.075240 0.008101 0.002320 0.000001 -0.000008 0.000008 -0.042007 0.000000 0.000000 -0.000001 0.000038 0.000011 -0.025915 -0.000000 0.000000 -0.000003 0.000040 0.000010 -0.074383 0.008101 -0.015403 0.000001 0.000015 -0.000002 -0.038967 0.000000 0.000000 -0.000003 -0.000000 -0.000004 -0.022488 0.000000 0.000000 0.712573 -0.008158 -1.310730 -0.003995 -0.010985 0.018096 -86.199439 49.487521 89.646581 -0.052819 -0.000008 -0.000074 2.573040 -0.739911 -0.463020 -0.032489 0.000042 -0.000035 -4.590285 -0.705067 0.717109 0.087143 -0.045243 0.001548 -2.106462 -13.350050 -0.486605 -0.000000 -0.394432 -0.000001 1.983082 28.618779 -3.977617 -0.000000 -0.466446 0.003058 4.596964 -15.425583 17.206242 -0.000000 -0.079218 0.140851 0.000000 0.248283 0.000001 -0.087143 -0.045243 0.001548 -6.995151 -12.252728 -1.491590 -0.000000 -0.394432 -0.000001 6.859584 21.466866 -13.899329 -0.000000 -0.466446 0.003058 5.255263 -15.461883 19.464755 -0.000000 -0.079218 0.140851 -0.000001 0.248285 -0.000002 
